HIERARCHY
ROOT Hips
{
	OFFSET 0.00000 0.00000 0.00000
	CHANNELS 6 Xposition Yposition Zposition Zrotation Yrotation Xrotation 
	JOINT LHipJoint
	{
		OFFSET 0 0 0
		CHANNELS 3 Zrotation Yrotation Xrotation
		JOINT LeftHip
		{
			OFFSET 3.13874 -1.57224 1.49786
			CHANNELS 3 Zrotation Yrotation Xrotation
			JOINT LeftKnee
			{
				OFFSET 2.10955 -5.79594 0.00000
				CHANNELS 3 Zrotation Yrotation Xrotation
				JOINT LeftAnkle
				{
					OFFSET 2.41843 -6.64458 0.00000
					CHANNELS 3 Zrotation Yrotation Xrotation
					JOINT LeftToe
					{
						OFFSET 0.04713 -0.12948 1.66229
						CHANNELS 3 Zrotation Yrotation Xrotation
						End Site
						{
							OFFSET 0.00000 -0.00000 0.85167
						}
					}
				}
			}
		}
	}
	JOINT RHipJoint
	{
		OFFSET 0 0 0
		CHANNELS 3 Zrotation Yrotation Xrotation
		JOINT RightHip
		{
			OFFSET -3.13988 -1.57224 1.49786
			CHANNELS 3 Zrotation Yrotation Xrotation
			JOINT RightKnee
			{
				OFFSET -2.15006 -5.90725 0.00000
				CHANNELS 3 Zrotation Yrotation Xrotation
				JOINT RightAnkle
				{
					OFFSET -2.34496 -6.44273 0.00000
					CHANNELS 3 Zrotation Yrotation Xrotation
					JOINT RightToe
					{
						OFFSET -0.08699 -0.23900 1.55223
						CHANNELS 3 Zrotation Yrotation Xrotation
						End Site
						{
							OFFSET -0.00000 -0.00000 0.80281
						}
					}
				}
			}
		}
	}
	JOINT lowerback
	{
		OFFSET 0 0 0
		CHANNELS 3 Zrotation Yrotation Xrotation
		JOINT Chest
		{
			OFFSET 0.01292 1.96517 -0.16495
			CHANNELS 3 Zrotation Yrotation Xrotation
			JOINT Chest2
			{
				OFFSET 0.02122 1.88666 0.19706
				CHANNELS 3 Zrotation Yrotation Xrotation
				JOINT lowerneck
				{
					OFFSET 0 0 0
					CHANNELS 3 Zrotation Yrotation Xrotation
					JOINT Neck
					{
						OFFSET -0.01683 1.81591 0.07903
						CHANNELS 3 Zrotation Yrotation Xrotation
						JOINT Head
						{
							OFFSET 0.00815 1.74013 -0.47700
							CHANNELS 3 Zrotation Yrotation Xrotation
							End Site
							{
								OFFSET -0.00204 1.83225 -0.16933
							}
						}
					}
				}
				JOINT LeftCollar
				{
					OFFSET 0 0 0
					CHANNELS 3 Zrotation Yrotation Xrotation
					JOINT LeftShoulder
					{
						OFFSET 3.38482 1.41533 0.19802
CHANNELS 3 Zrotation Xrotation Yrotation
						JOINT LeftElbow
						{
OFFSET 0 -4.327120 0.000000
CHANNELS 3 Zrotation Xrotation Yrotation
							JOINT LeftWrist
							{
OFFSET 0 -3.285870 -0.000000
CHANNELS 3 Zrotation Xrotation Yrotation
								JOINT lhand
								{
									OFFSET 0 0 0
CHANNELS 3 Zrotation Xrotation Yrotation
									JOINT LFingers
									{
OFFSET 0 -0.433160 -0.000000
CHANNELS 3 Zrotation Xrotation Yrotation
										End Site
										{
OFFSET 0 -0.349220 -0.000000
										}
									}
								}
								JOINT LThumb
								{
OFFSET 0 0.000000 0.000000
CHANNELS 3 Zrotation Xrotation Yrotation
									End Site
									{
OFFSET 0 -0.354560 0.354560
									}
								}
							}
						}
					}
				}
				JOINT RightCollar
				{
					OFFSET 0 0 0
					CHANNELS 3 Zrotation Yrotation Xrotation
					JOINT RightShoulder
					{
						OFFSET -3.09725 1.62858 -0.14144
CHANNELS 3 Zrotation Xrotation Yrotation
						JOINT RightElbow
						{
OFFSET 0 -4.291040 0.000000
CHANNELS 3 Zrotation Xrotation Yrotation
							JOINT RightWrist
							{
OFFSET 0 -3.227200 -0.000000
CHANNELS 3 Zrotation Xrotation Yrotation
								JOINT rhand
								{
									OFFSET 0 0 0
CHANNELS 3 Zrotation Xrotation Yrotation
									JOINT RFingers
									{
OFFSET 0 -0.543620 -0.000000
CHANNELS 3 Zrotation Xrotation Yrotation
										End Site
										{
OFFSET 0 -0.438280 -0.000000
										}
									}
								}
								JOINT RThumb
								{
OFFSET 0 0.000000 0.000000
CHANNELS 3 Zrotation Xrotation Yrotation
									End Site
									{
OFFSET 0 -0.444970 0.444970
									}
								}
							}
						}
					}
				}
			}
		}
	}
}
MOTION
Frames: 11
Frame Time: 0.008333333333333333
-34.135600 16.275700 0.515900 -151.559000 -82.079400 160.614000 0.000000 0.000000 0.000000 -30.133500 -28.099700 5.142500 0.050900 1.455500 4.003000 1.808900 -0.396300 -25.337600 3.075600 -10.816400 -31.663300 0.000000 0.000000 0.000000 33.027500 20.105000 5.684300 -0.017900 0.863800 -2.374200 0.490500 -15.986500 -16.815400 -0.977600 6.294200 -17.640300 8.371500 1.883700 8.474400 -1.844200 3.381100 -11.097500 -7.533000 0.193800 -16.833200 -17.766600 -14.171400 -5.146800 10.418100 -22.145200 27.192100 3.387300 -11.187600 13.178600 0.000000 -0.000000 0.000000 14.924500 20.265100 -27.284000 16.113300 -25.674000 3.694900 26.340900 17.171300 -26.529300 0.000000 0.000000 0.000000 -7.125000 0.000000 0.000000 -4.217800 59.050700 1.449800 0.000000 -0.000000 0.000000 -11.583900 19.266100 41.023600 -17.190500 -27.108300 -4.173800 -26.031000 0.333300 19.481000 0.000000 0.000000 0.000000 7.125000 0.000000 -0.000000 2.329600 51.453900 -0.370500
-34.099109 16.273770 0.525567 -151.375339 -81.893522 160.393117 0.000000 0.000000 0.000000 -29.595897 -27.319984 3.705358 0.086216 1.889190 5.199736 1.722350 -2.413194 -24.173155 2.319718 -9.494298 -27.360310 0.000000 0.000000 0.000000 32.845897 19.618972 4.556359 -0.006165 0.493447 -1.355972 0.449817 -15.287820 -16.038557 -1.104272 6.676194 -18.759788 8.346223 1.881573 8.753380 -1.799228 3.413202 -11.009395 -7.489124 0.217294 -16.902649 -17.361971 -14.006470 -5.791386 10.199968 -21.814726 27.521877 3.270196 -10.989352 13.302511 0.000000 0.000000 0.000000 14.946480 20.159245 -27.434760 16.231437 -25.833382 3.746218 25.733687 16.855060 -26.781959 0.000000 0.000000 0.000000 -7.125000 0.000000 0.000000 -5.012547 59.172317 1.738478 0.000000 0.000000 0.000000 -11.576332 19.144861 40.798701 -17.337393 -27.300459 -4.240939 -26.028113 0.402109 19.518822 0.000000 0.000000 0.000000 7.125000 0.000000 0.000000 2.341222 51.494185 -0.374645
-34.057291 16.272729 0.536179 -151.985593 -81.693840 161.032476 0.000000 0.000000 0.000000 -29.107369 -26.638872 2.198416 0.130160 2.319766 6.390606 1.609535 -4.004602 -23.033252 1.753523 -8.320424 -23.698738 0.000000 0.000000 0.000000 32.515683 19.197760 3.228920 -0.000961 0.060319 -0.165765 0.400817 -14.523449 -15.305392 -1.208227 6.972549 -19.634326 8.190172 1.901853 9.002066 -1.780124 3.446015 -10.927493 -7.399724 0.255416 -16.961512 -16.915475 -13.803875 -6.553573 9.997401 -21.434573 27.910693 3.154117 -10.757903 13.467378 0.000000 0.000000 0.000000 15.005221 20.036412 -27.680909 16.356390 -26.001442 3.800920 25.452880 16.659707 -26.940374 0.000000 0.000000 0.000000 -7.125000 0.000000 0.000000 -5.399830 59.271469 1.885984 0.000000 0.000000 0.000000 -11.598808 18.993116 40.661184 -17.492939 -27.502967 -4.312551 -26.104096 0.425687 19.519547 0.000000 0.000000 0.000000 7.125000 0.000000 0.000000 2.264508 51.508650 -0.363197
-34.008225 16.272429 0.550489 -153.035349 -81.472296 162.172109 0.000000 0.000000 0.000000 -28.648485 -25.964458 0.625679 0.179928 2.727017 7.519991 1.483554 -4.954285 -21.942446 1.425952 -7.550825 -21.357939 0.000000 0.000000 0.000000 32.048856 18.696004 1.588347 -0.006743 -0.466075 1.280883 0.337207 -13.578937 -14.529423 -1.331033 7.302482 -20.616098 7.988776 1.932932 9.285926 -1.784396 3.484353 -10.874865 -7.317234 0.293559 -17.080736 -16.422678 -13.555511 -7.422122 9.798518 -20.998249 28.372328 3.036703 -10.492484 13.675483 0.000000 0.000000 0.000000 15.115140 19.945995 -28.000654 16.501616 -26.195943 3.864760 25.355394 16.513358 -27.040918 0.000000 0.000000 0.000000 -7.125000 0.000000 0.000000 -5.555242 59.353303 1.951308 0.000000 0.000000 0.000000 -11.642715 18.845999 40.608237 -17.650307 -27.706973 -4.385465 -26.200163 0.407750 19.505346 0.000000 0.000000 0.000000 7.125000 0.000000 0.000000 2.163993 51.510527 -0.347155
-33.951023 16.271921 0.570757 -154.114918 -81.210643 163.392088 0.000000 0.000000 0.000000 -28.198483 -25.299368 -0.950526 0.231842 3.095146 8.544047 1.371369 -4.981406 -21.060995 1.388069 -7.454170 -21.068146 0.000000 0.000000 0.000000 31.500888 17.995072 -0.436550 -0.032057 -1.110727 3.053959 0.264229 -12.418269 -13.614220 -1.609160 7.985552 -22.677698 7.828463 1.967941 9.623755 -1.797500 3.537689 -10.846536 -7.277142 0.326686 -17.263342 -15.873882 -13.263940 -8.396205 9.584152 -20.501008 28.883767 2.911164 -10.191495 13.914399 0.000000 0.000000 0.000000 15.274488 19.893025 -28.377729 16.671836 -26.422961 3.940280 25.335383 16.374027 -27.097231 0.000000 0.000000 0.000000 -7.125000 0.000000 0.000000 -5.603495 59.407326 1.975546 0.000000 0.000000 0.000000 -11.702736 18.695335 40.597704 -17.803212 -27.904308 -4.456817 -26.262950 0.380180 19.500513 0.000000 0.000000 0.000000 7.125000 0.000000 0.000000 2.099329 51.516610 -0.337061
-33.885533 16.270492 0.597090 -155.063457 -80.893492 164.532247 0.000000 0.000000 0.000000 -27.737693 -24.647842 -2.514690 0.284018 3.424691 9.463778 1.268809 -5.089664 -20.219314 1.378871 -7.430523 -20.997291 0.000000 0.000000 0.000000 30.928498 17.107999 -2.830526 -0.088189 -1.880805 5.177303 0.169479 -10.939119 -12.730357 -2.010918 8.879220 -25.424698 7.738111 2.007684 10.014141 -1.812608 3.613679 -10.844093 -7.289928 0.355068 -17.508826 -15.253071 -12.927447 -9.473869 9.333511 -19.935363 29.430372 2.769662 -9.852321 14.174115 0.000000 0.000000 0.000000 15.477320 19.894361 -28.753157 16.888462 -26.710284 4.037202 25.252506 16.182069 -27.132447 0.000000 0.000000 0.000000 -7.125000 0.000000 0.000000 -5.713348 59.424334 2.016800 0.000000 0.000000 0.000000 -11.772615 18.554515 40.599030 -17.959798 -28.105537 -4.530360 -26.275644 0.354761 19.510767 0.000000 0.000000 0.000000 7.125000 0.000000 0.000000 2.088775 51.529967 -0.336045
-33.812537 16.267738 0.626233 -155.961237 -80.495609 165.683189 0.000000 0.000000 0.000000 -27.233678 -23.989445 -4.105429 0.336283 3.724664 10.303494 1.176332 -5.293286 -19.427780 1.394368 -7.470359 -21.116607 0.000000 0.000000 0.000000 30.382434 16.243693 -5.467165 -0.186912 -2.759687 7.611817 0.057524 -9.233121 -12.109076 -2.497565 9.822138 -28.412125 7.667793 2.066667 10.423525 -1.824916 3.720683 -10.872194 -7.321931 0.389847 -17.801458 -14.526554 -12.532526 -10.630307 9.031901 -19.283906 29.980574 2.607669 -9.467256 14.429139 0.000000 0.000000 0.000000 15.714230 19.968980 -29.060398 17.165422 -27.075092 4.162484 25.021179 15.925904 -27.185824 0.000000 0.000000 0.000000 -7.125000 0.000000 0.000000 -5.999247 59.424729 2.118183 0.000000 0.000000 0.000000 -11.854404 18.445014 40.611866 -18.134765 -28.329240 -4.613075 -26.252433 0.310919 19.519598 0.000000 0.000000 0.000000 7.125000 0.000000 0.000000 2.114376 51.535384 -0.340456
-33.733941 16.263083 0.654294 -156.881494 -80.011923 166.915942 0.000000 0.000000 0.000000 -26.675555 -23.304752 -5.751318 0.389958 4.008823 11.101573 1.091503 -5.564844 -18.677685 1.417673 -7.529937 -21.295227 0.000000 0.000000 0.000000 29.892658 15.595097 -8.151313 -0.332477 -3.691813 10.212593 -0.047966 -7.591715 -11.826870 -3.144552 10.916131 -32.007431 7.565279 2.154013 10.798492 -1.832212 3.856708 -10.921263 -7.336421 0.440839 -18.095294 -13.669971 -12.069135 -11.835389 8.673087 -18.535777 30.492200 2.423529 -9.031631 14.652042 0.000000 0.000000 0.000000 15.976634 20.104737 -29.272456 17.489404 -27.498194 4.310954 24.749192 15.665548 -27.239150 0.000000 0.000000 0.000000 -7.125000 0.000000 0.000000 -6.330885 59.415518 2.234461 0.000000 0.000000 0.000000 -11.950130 18.358982 40.645772 -18.332411 -28.580567 -4.707253 -26.224834 0.234225 19.523091 0.000000 0.000000 0.000000 7.125000 0.000000 0.000000 2.143047 51.534172 -0.345053
-33.652388 16.256421 0.679456 -157.933317 -79.480531 168.316963 0.000000 0.000000 0.000000 -26.128816 -22.618225 -7.412142 0.446086 4.284779 11.879140 1.014793 -5.819095 -17.984462 1.440455 -7.587750 -21.468651 0.000000 0.000000 0.000000 29.440232 15.141347 -10.716667 -0.523760 -4.634267 12.868938 -0.149327 -6.123246 -11.975645 -3.892186 12.012505 -35.780254 7.399230 2.265685 11.093327 -1.846001 4.003469 -10.975574 -7.320637 0.507233 -18.343183 -12.695032 -11.539614 -13.054553 8.254264 -17.699439 30.947504 2.216998 -8.552719 14.833285 0.000000 0.000000 0.000000 16.257970 20.280442 -29.392232 17.840510 -27.952423 4.474261 24.577521 15.437035 -27.277913 0.000000 0.000000 0.000000 -7.125000 0.000000 0.000000 -6.542581 59.414943 2.309464 0.000000 0.000000 0.000000 -12.052534 18.280692 40.705660 -18.544605 -28.848802 -4.809144 -26.237399 0.139182 19.539051 0.000000 0.000000 0.000000 7.125000 0.000000 0.000000 2.134014 51.553718 -0.344562
-33.568945 16.246952 0.700948 -159.315272 -78.956118 170.047968 0.000000 0.000000 0.000000 -25.694324 -21.972388 -9.029104 0.504993 4.554913 12.643256 0.943960 -6.043181 -17.331237 1.462862 -7.644039 -21.638042 0.000000 0.000000 0.000000 28.965536 14.842644 -13.010161 -0.759295 -5.560367 15.515226 -0.246250 -5.024350 -12.572673 -4.587292 12.902047 -39.005143 7.129596 2.393299 11.285367 -1.885645 4.136151 -11.024030 -7.266060 0.583848 -18.520406 -11.715324 -10.931028 -14.235606 7.886242 -16.790263 31.373260 2.047778 -8.040152 15.007505 0.000000 0.000000 0.000000 16.542987 20.472399 -29.409779 18.184404 -28.392598 4.636694 24.630487 15.284667 -27.270666 0.000000 0.000000 0.000000 -7.125000 0.000000 0.000000 -6.479606 59.420059 2.287908 0.000000 0.000000 0.000000 -12.149048 18.195738 40.787716 -18.743909 -29.099213 -4.905688 -26.297774 0.059589 19.591875 0.000000 0.000000 0.000000 7.125000 0.000000 0.000000 2.084955 51.621671 -0.340120
-33.484217 16.233832 0.717972 -160.670053 -78.475564 171.682297 0.000000 0.000000 0.000000 -25.341062 -21.403860 -10.511008 0.566440 4.819264 13.393984 0.878049 -6.235122 -16.709954 1.480741 -7.688493 -21.771779 0.000000 0.000000 0.000000 28.537968 14.604620 -14.903622 -1.053105 -6.514833 18.289522 -0.348052 -4.382977 -13.620283 -5.074652 13.466400 -41.142194 6.831634 2.515501 11.425037 -1.939403 4.247281 -11.057506 -7.202651 0.657648 -18.648402 -10.998503 -10.177302 -15.099876 7.993040 -15.800488 31.609251 2.146883 -7.484482 15.114816 0.000000 0.000000 0.000000 16.818282 20.665344 -29.326440 18.477474 -28.764136 4.776861 24.935170 15.232210 -27.183265 0.000000 0.000000 0.000000 -7.125000 0.000000 0.000000 -6.095116 59.401592 2.148947 0.000000 0.000000 0.000000 -12.220486 18.107847 40.876816 -18.894155 -29.286965 -4.979002 -26.361845 0.023887 19.683546 0.000000 0.000000 0.000000 7.125000 0.000000 0.000000 2.041047 51.732696 -0.338489
